<svg width="121" height="121" viewBox="0 0 121 121" fill="none" xmlns="http://www.w3.org/2000/svg">
<path fill-rule="evenodd" clip-rule="evenodd" d="M37.8719 21.3069C31.5955 17.9225 24.4133 16.0017 16.7826 16.0017C16.3514 16.0017 16.0019 16.3512 16.0019 16.7824C16.0019 24.4132 17.9227 31.5954 21.3071 37.8719C14.1793 38.0791 6.99896 40.0068 0.390465 43.8222C0.0170765 44.0378 -0.110856 44.5152 0.10472 44.8886C3.92012 51.4971 9.17463 56.7566 15.2438 60.5C9.17464 64.2434 3.92014 69.5029 0.104746 76.1114C-0.11083 76.4848 0.0171028 76.9622 0.390491 77.1778C6.99894 80.9932 14.1792 82.9208 21.307 83.1281C17.9226 89.4045 16.0019 96.5866 16.0019 104.217C16.0019 104.649 16.3514 104.998 16.7826 104.998C24.4133 104.998 31.5955 103.077 37.8719 99.6929C38.0791 106.821 40.0068 114.001 43.8222 120.61C44.0378 120.983 44.5152 121.111 44.8886 120.895C51.4971 117.08 56.7567 111.825 60.5 105.756C64.2434 111.825 69.5029 117.08 76.1114 120.895C76.4848 121.111 76.9622 120.983 77.1778 120.61C80.9932 114.001 82.9209 106.821 83.1281 99.6928C89.4046 103.077 96.5867 104.998 104.218 104.998C104.649 104.998 104.998 104.649 104.998 104.217C104.998 96.5866 103.077 89.4045 99.6931 83.1281C106.821 82.9208 114.001 80.9932 120.61 77.1778C120.983 76.9622 121.111 76.4848 120.895 76.1114C117.08 69.5029 111.825 64.2434 105.756 60.5C111.825 56.7566 117.08 51.4971 120.895 44.8886C121.111 44.5152 120.983 44.0378 120.61 43.8222C114.001 40.0068 106.821 38.0791 99.693 37.8719C103.077 31.5954 104.998 24.4132 104.998 16.7824C104.998 16.3512 104.649 16.0017 104.218 16.0017C96.5867 16.0017 89.4045 17.9225 83.1281 21.3069C82.9208 14.1792 80.9932 6.99889 77.1778 0.390465C76.9622 0.0170768 76.4848 -0.110856 76.1114 0.10472C69.5029 3.92011 64.2434 9.17461 60.5 15.2438C56.7567 9.17461 51.4971 3.92011 44.8886 0.10472C44.5153 -0.110856 44.0378 0.0170768 43.8222 0.390465C40.0069 6.99888 38.0792 14.1791 37.8719 21.3069ZM56.329 53.2755C53.0621 49.4827 49.2376 46.3427 45.0517 43.9081C41.597 37.8349 39.6692 30.994 39.4383 24.0199C45.3625 27.7069 50.323 32.7968 53.8551 38.8252C53.8706 43.6676 54.6777 48.5499 56.329 53.2755ZM53.9357 36.0016C50.2126 30.3665 45.2417 25.6282 39.4168 22.1802C39.4843 15.2778 41.2197 8.29991 44.7867 1.85689C51.0972 5.65328 56.0891 10.8286 59.5988 16.7726C56.2783 22.6711 54.3426 29.2599 53.9357 36.0016ZM55.5461 42.0116C55.9451 47.1251 57.2695 52.233 59.5858 57.0881C59.1642 51.7253 57.7573 46.6395 55.5461 42.0116ZM42.0123 55.5462C47.1254 55.9451 52.2329 57.2695 57.0876 59.5856C51.7253 59.1639 46.6399 57.7572 42.0123 55.5462ZM38.8257 53.8551C43.6679 53.8707 48.55 54.6777 53.2756 56.329C49.4827 53.0621 46.3427 49.2375 43.9081 45.0517C37.835 41.5971 30.9942 39.6692 24.0202 39.4383C27.7073 45.3626 32.7973 50.323 38.8257 53.8551ZM22.1805 39.4168C25.6285 45.2417 30.3669 50.2125 36.002 53.9357C29.2602 54.3425 22.6712 56.2782 16.7726 59.5988C10.8286 56.0891 5.65328 51.0972 1.85689 44.7866C8.29999 41.2197 15.278 39.4842 22.1805 39.4168ZM23.0817 37.8558C29.8502 37.9294 36.5242 39.5475 42.5661 42.5661C39.5475 36.5241 37.9294 29.85 37.8558 23.0814C31.8444 19.6887 24.9336 17.7026 17.5703 17.5701C17.7028 24.9335 19.6889 31.8443 23.0817 37.8558ZM81.5832 22.1802C81.5157 15.2778 79.7803 8.29992 76.2134 1.85689C69.9028 5.65328 64.9109 10.8286 61.4013 16.7726C64.7218 22.6711 66.6575 29.26 67.0643 36.0017C70.7875 30.3666 75.7583 25.6283 81.5832 22.1802ZM67.1449 38.8253C70.677 32.797 75.6375 27.707 81.5617 24.0199C81.3308 30.9941 79.403 37.835 75.9483 43.9081C71.7625 46.3427 67.9379 49.4827 64.6711 53.2755C66.3223 48.5499 67.1294 43.6677 67.1449 38.8253ZM61.4143 57.0878C63.7305 52.2329 65.0549 47.1252 65.4539 42.0119C63.2428 46.6396 61.8359 51.7252 61.4143 57.0878ZM65.5827 38.4067C63.175 42.6081 61.4328 47.2397 60.5001 52.1578C59.5673 47.2396 57.8251 42.608 55.4174 38.4065C55.4621 31.4199 57.213 24.5317 60.5 18.3765C63.787 24.5317 65.5379 31.42 65.5827 38.4067ZM83.1442 23.0815C89.1557 19.6887 96.0665 17.7026 103.43 17.5701C103.297 24.9335 101.311 31.8443 97.9184 37.8558C91.1499 37.9294 84.4758 39.5475 78.4339 42.5661C81.4525 36.5241 83.0706 29.8501 83.1442 23.0815ZM96.98 39.4383C90.0059 39.6692 83.165 41.597 77.092 45.0517C74.6573 49.2375 71.5173 53.0621 67.7245 56.329C72.45 54.6777 77.3321 53.8706 82.1745 53.8551C88.2029 50.323 93.2929 45.3625 96.98 39.4383ZM63.9124 59.5856C69.2748 59.164 74.3602 57.7572 78.9878 55.5461C73.8747 55.9451 68.7672 57.2695 63.9124 59.5856ZM82.5931 55.4173C89.5799 55.462 96.4682 57.2129 102.623 60.5C96.4683 63.787 89.5802 65.5379 82.5935 65.5827C78.3921 63.1749 73.7603 61.4327 68.8421 60.4999C73.7602 59.5671 78.3917 57.825 82.5931 55.4173ZM63.9118 61.4141C68.767 63.7304 73.8749 65.055 78.9885 65.4539C74.3605 63.2426 69.2747 61.8357 63.9118 61.4141ZM82.1749 67.1449C88.2032 70.677 93.2931 75.6375 96.9801 81.5617C90.006 81.3308 83.1651 79.403 77.092 75.9483C74.6574 71.7625 71.5173 67.9379 67.7245 64.671C72.4502 66.3223 77.3325 67.1294 82.1749 67.1449ZM98.8198 81.5832C95.3718 75.7583 90.6335 70.7875 84.9984 67.0643C91.7401 66.6574 98.329 64.7217 104.227 61.4013C110.171 64.9109 115.347 69.9028 119.143 76.2134C112.7 79.7803 105.722 81.5157 98.8198 81.5832ZM97.9186 83.1442C91.15 83.0706 84.4759 81.4525 78.434 78.4339C81.4525 84.4758 83.0706 91.1498 83.1442 97.9183C89.1557 101.311 96.0665 103.297 103.43 103.43C103.297 96.0663 101.311 89.1556 97.9186 83.1442ZM81.5617 96.9798C81.3308 90.0058 79.403 83.165 75.9484 77.092C71.7625 74.6573 67.9379 71.5173 64.671 67.7245C66.3223 72.45 67.1293 77.3321 67.1449 82.1744C70.677 88.2028 75.6375 93.2928 81.5617 96.9798ZM61.4144 63.9123C61.836 69.2747 63.2428 74.3602 65.4538 78.9878C65.0549 73.8746 63.7304 68.7671 61.4144 63.9123ZM65.5827 82.593C65.538 89.5798 63.7871 96.4682 60.5 102.623C57.213 96.4682 55.4621 89.5799 55.4174 82.5931C57.8251 78.3917 59.5673 73.7601 60.5001 68.8419C61.4328 73.76 63.175 78.3916 65.5827 82.593ZM55.5462 78.988C55.9451 73.8747 57.2696 68.767 59.5858 63.912C59.1642 69.2746 57.7573 74.3603 55.5462 78.988ZM53.8551 82.1745C50.323 88.2029 45.3625 93.2928 39.4383 96.9799C39.6692 90.0058 41.5971 83.165 45.0517 77.092C49.2375 74.6573 53.0621 71.5173 56.329 67.7245C54.6777 72.45 53.8707 77.3322 53.8551 82.1745ZM39.4168 98.8196C45.2417 95.3716 50.2126 90.6332 53.9357 84.9981C54.3426 91.7399 56.2782 98.3288 59.5988 104.227C56.0891 110.171 51.0972 115.347 44.7866 119.143C41.2197 112.7 39.4843 105.722 39.4168 98.8196ZM37.8558 97.9183C37.9294 91.1498 39.5475 84.4758 42.5661 78.4339C36.5241 81.4525 29.8501 83.0706 23.0816 83.1442C19.6888 89.1556 17.7028 96.0663 17.5703 103.43C24.9336 103.297 31.8444 101.311 37.8558 97.9183ZM24.02 81.5617C30.9941 81.3308 37.835 79.403 43.908 75.9483C46.3427 71.7625 49.4827 67.9379 53.2755 64.671C48.5499 66.3223 43.6676 67.1294 38.8252 67.1449C32.7969 70.677 27.707 75.6375 24.02 81.5617ZM38.4066 65.5827C31.4199 65.5379 24.5317 63.787 18.3766 60.5C24.5318 57.2129 31.4202 55.462 38.4071 55.4173C42.6084 57.825 47.2399 59.5671 52.158 60.4999C47.2398 61.4327 42.6081 63.1749 38.4066 65.5827ZM42.0116 65.4539C46.6396 63.2426 51.7254 61.8357 57.0882 61.4141C52.2331 63.7304 47.1252 65.0549 42.0116 65.4539ZM36.0017 67.0643C30.3666 70.7875 25.6283 75.7583 22.1803 81.5832C15.2779 81.5157 8.29997 79.7803 1.85691 76.2134C5.6533 69.9028 10.8287 64.9109 16.7726 61.4013C22.6711 64.7217 29.26 66.6574 36.0017 67.0643ZM67.0643 84.998C70.7875 90.6331 75.7583 95.3715 81.5832 98.8195C81.5158 105.722 79.7804 112.7 76.2134 119.143C69.9028 115.347 64.9109 110.171 61.4013 104.227C64.7218 98.3288 66.6575 91.7398 67.0643 84.998ZM84.9981 53.9357C90.6332 50.2125 95.3716 45.2417 98.8197 39.4168C105.722 39.4843 112.7 41.2197 119.143 44.7866C115.347 51.0972 110.171 56.0891 104.227 59.5988C98.3289 56.2782 91.7399 54.3425 84.9981 53.9357ZM74.0342 46.9658C69.8054 49.868 66.0443 53.5688 62.9979 58.0021C67.4312 54.9557 71.132 51.1946 74.0342 46.9658ZM74.0343 74.0343C71.1321 69.8054 67.4312 66.0442 62.9978 62.9978C66.0442 67.4312 69.8055 71.1321 74.0343 74.0343ZM58.0022 62.9978C54.9558 67.4312 51.1946 71.1321 46.9658 74.0343C49.8679 69.8054 53.5688 66.0442 58.0022 62.9978ZM58.0022 58.0022C53.5688 54.9557 49.868 51.1946 46.9658 46.9658C51.1946 49.868 54.9557 53.5688 58.0022 58.0022Z" fill="url(#paint0_radial_253_165)"/>
<defs>
<radialGradient id="paint0_radial_253_165" cx="0" cy="0" r="1" gradientUnits="userSpaceOnUse" gradientTransform="translate(60.5001 60.4996) rotate(90) scale(49.1822)">
<stop stop-color="white"/>
<stop offset="1" stop-color="white" stop-opacity="0.15"/>
</radialGradient>
</defs>
</svg>
