<svg width="120" height="120" viewBox="0 0 120 120" fill="none" xmlns="http://www.w3.org/2000/svg">
<path fill-rule="evenodd" clip-rule="evenodd" d="M60.75 119.993C75.6099 119.708 88.8319 110.983 97.4831 97.4831C110.298 89.2711 118.81 76.9405 119.885 63C119.961 62.2063 120 61.406 120 60.6L120 60.4879C120 60.4364 119.999 60.3848 119.999 60.3333L120 60.1666L120 60L120 59.8125L120 59.7C120 59.5497 119.998 59.3997 119.993 59.25C119.708 44.3901 110.983 31.1681 97.4831 22.5169C88.8319 9.01699 75.6099 0.291697 60.75 0.00717554C60.6003 0.00239764 60.4503 0 60.3 0L60.1875 0.000448063L60 0C59.8888 0 59.7777 0.000472663 59.6667 0.00141647C59.5779 0.000472663 59.489 0 59.4 0C58.594 0 57.7937 0.0388042 57 0.115282C43.0595 1.18987 30.7289 9.7023 22.5169 22.5169C9.01699 31.1681 0.291697 44.3901 0.00717554 59.25C0.00239764 59.3997 0 59.5497 0 59.7L0.000448063 59.8125L0 60C0 60.1112 0.000472663 60.2223 0.00141647 60.3333C0.000472663 60.4221 0 60.511 0 60.6C0 61.406 0.0388042 62.2063 0.115282 63C1.18987 76.9405 9.7023 89.2711 22.5169 97.4831C30.7289 110.298 43.0595 118.81 57 119.885C57.7937 119.961 58.594 120 59.4 120L59.5121 120C59.5636 120 59.6152 119.999 59.6667 119.999L59.8334 120L60 120L60.1875 120L60.3 120C60.4503 120 60.6003 119.998 60.75 119.993ZM68.597 118.268C79.4555 115.758 89.0507 108.581 95.9649 98.4246C92.8628 100.286 89.5279 101.912 86.0015 103.271C81.2189 110.451 75.2487 115.714 68.597 118.268ZM117.327 71.9694C114.22 81.4382 107.516 89.7757 98.4246 95.9649C99.997 93.3441 101.402 90.5571 102.619 87.6289C109.329 83.2955 114.437 77.9444 117.327 71.9694ZM96.9418 96.9418C98.6562 94.2523 100.188 91.3705 101.513 88.3252C98.4155 90.2254 95 91.9151 91.3229 93.3584C89.9624 96.5307 88.4134 99.4889 86.7009 102.194C90.3493 100.722 93.7786 98.9581 96.9418 96.9418ZM118.72 65.6458C117.041 73.5775 111.453 80.7794 103.115 86.4034C104.129 83.8198 104.999 81.1317 105.712 78.3555C112.071 74.7693 116.63 70.4256 118.72 65.6458ZM102.023 87.1207C103.111 84.4758 104.046 81.7136 104.811 78.8524C101.833 80.4564 98.4874 81.8994 94.8372 83.151C93.9712 86.3836 92.9292 89.4726 91.7301 92.3887C95.4664 90.8775 98.9184 89.1076 102.023 87.1207ZM119.244 60.0824C119.06 66.4955 114.228 72.5319 105.963 77.3477C107.288 71.8558 108 66.0318 108 60C108 53.7112 107.226 47.6483 105.791 41.9522C113.213 46.2372 117.905 51.5001 119.002 57.1401C119.142 58.1115 119.223 59.0928 119.244 60.0824ZM107.25 60C107.25 53.5097 106.42 47.2736 104.889 41.444C103.996 40.9525 103.067 40.4747 102.102 40.0115C99.8707 38.9405 97.4605 37.9536 94.894 37.062C96.7666 44.1286 97.8 51.8757 97.8 60C97.8 67.8721 96.8297 75.3901 95.0659 82.278C97.5682 81.4022 99.9206 80.4355 102.102 79.3885C103.132 78.8941 104.121 78.3831 105.069 77.8565C106.485 72.2285 107.25 66.2314 107.25 60ZM117.444 51.3572C115 47.4757 110.896 43.9401 105.528 40.941C105.004 38.9856 104.402 37.0752 103.726 35.2155C110.253 39.7526 115.02 45.2756 117.444 51.3572ZM104.619 40.4447C104.051 38.4078 103.397 36.4225 102.663 34.4953C102.451 34.3555 102.237 34.2166 102.022 34.0788C99.0766 32.1937 95.8189 30.5043 92.3018 29.0454C93.1845 31.3311 93.9724 33.7162 94.657 36.1875C98.2989 37.4265 101.64 38.8556 104.619 40.4447ZM118.268 51.403C115.714 44.7513 110.451 38.7811 103.271 33.9985C101.912 30.4721 100.286 27.1372 98.4246 24.0351C108.581 30.9493 115.758 40.5445 118.268 51.403ZM102.194 33.2991C100.722 29.6507 98.9581 26.2214 96.9418 23.0582C93.7786 21.0419 90.3493 19.278 86.7009 17.8061C88.6696 20.9157 90.4222 24.36 91.9207 28.0794C95.64 29.5779 99.0843 31.3305 102.194 33.2991ZM68.597 1.73186C79.4555 4.242 89.0508 11.4193 95.9649 21.5754C92.8628 19.7142 89.528 18.0878 86.0015 16.7291C81.219 9.54919 75.2487 4.28645 68.597 1.73186ZM68.6428 2.55603C74.7244 4.97964 80.2474 9.7468 84.7845 16.2736C82.9248 15.5979 81.0144 14.9959 79.059 14.4723C76.0599 9.10384 72.5243 4.99951 68.6428 2.55603ZM79.5553 15.3813C81.5922 15.9489 83.5775 16.6027 85.5047 17.337C85.6445 17.5489 85.7834 17.7625 85.9212 17.9779C87.8063 20.9234 89.4957 24.1811 90.9546 27.6982C88.6689 26.8155 86.2838 26.0276 83.8125 25.3431C82.5735 21.7011 81.1444 18.3597 79.5553 15.3813ZM84.0996 26.2025C86.6119 26.9157 89.0314 27.7368 91.3437 28.6563C92.2632 30.9686 93.0843 33.3881 93.7975 35.9004C91.3896 35.1111 88.8557 34.4037 86.2133 33.7867C85.5963 31.1443 84.8889 28.6104 84.0996 26.2025ZM86.3999 34.6011C89.0671 35.2346 91.6197 35.9608 94.0392 36.7706C95.9759 43.899 97.05 51.7492 97.05 60C97.05 67.9973 96.0409 75.6182 94.2153 82.5703C91.7859 83.3896 89.2212 84.1245 86.54 84.7655C88.0038 78.0444 88.8902 70.6613 89.0671 62.8913C89.188 61.8438 89.25 60.779 89.25 59.7C89.25 58.5635 89.1812 57.4427 89.0473 56.3414C88.8241 48.6085 87.8978 41.2705 86.3999 34.6011ZM88.076 51.7146C87.6678 45.5958 86.8143 39.7795 85.588 34.412C78.9596 32.8976 71.6466 31.9517 63.9249 31.711C75.4485 33.0907 84.8731 41.1007 88.076 51.7146ZM88.2987 56.4C86.6292 42.8084 74.7782 32.25 60.375 32.25C44.9142 32.25 32.3941 44.4159 32.2512 59.4402C32.2507 59.5584 32.2504 59.6767 32.2502 59.7951C32.3027 74.8951 44.8577 87.15 60.375 87.15C74.8355 87.15 86.7236 76.5073 88.3182 62.8374C88.3393 61.8973 88.35 60.9513 88.35 60C88.35 58.7911 88.3327 57.5907 88.2987 56.4ZM88.1245 67.523C84.9691 78.2176 75.5072 86.3023 63.9248 87.689C71.7019 87.4465 79.0643 86.4888 85.7304 84.9554C86.9301 79.5406 87.7525 73.6807 88.1245 67.523ZM57.0561 87.7157C49.163 87.5316 41.6813 86.6112 34.9015 85.0985C33.6407 79.448 32.7914 73.3098 32.4369 66.8524C35.4074 77.9501 45.1272 86.3825 57.0561 87.7157ZM31.5002 59.7958C31.5001 59.8639 31.5 59.9319 31.5 60C31.5 68.8887 32.4278 77.326 34.0926 84.9145C30.6882 84.1247 27.4667 83.1844 24.4659 82.1125C22.7154 75.2841 21.75 67.8221 21.75 60C21.75 51.9246 22.7789 44.2329 24.6384 37.2261C27.6315 36.1649 30.8423 35.2344 34.2335 34.4529C32.5164 42.0439 31.5408 50.5062 31.5013 59.4346C31.5004 59.523 31.5 59.6114 31.5 59.7C31.5 59.732 31.5001 59.7639 31.5002 59.7958ZM32.4812 52.3841C32.8738 45.9656 33.7559 39.8717 35.0446 34.2696C41.7865 32.7759 49.2185 31.8671 57.056 31.6843C45.1858 33.0109 35.5031 41.3672 32.4812 52.3841ZM86.3592 85.5791C89.0165 84.9544 91.5633 84.2381 93.982 83.4389C93.0825 86.7148 92.0004 89.837 90.7566 92.7742C88.4848 93.6543 86.1123 94.4402 83.6523 95.1231C84.689 92.1367 85.597 88.9436 86.3592 85.5791ZM83.3478 95.9842C85.7637 95.3305 88.0988 94.5783 90.3407 93.7356C89.0281 96.7076 87.5475 99.481 85.9212 102.022C85.7834 102.237 85.6445 102.451 85.5047 102.663C83.5776 103.397 81.5922 104.051 79.5553 104.619C80.9493 102.006 82.2203 99.1136 83.3478 95.9842ZM79.059 105.528C81.0144 105.004 82.9248 104.402 84.7845 103.726C80.2474 110.253 74.7244 115.02 68.6428 117.444C72.5243 115 76.0599 110.896 79.059 105.528ZM79.9885 102.102C79.5253 103.067 79.0475 103.996 78.556 104.889C72.7264 106.42 66.4903 107.25 60 107.25C53.7686 107.25 47.7715 106.485 42.1435 105.069C41.6169 104.121 41.1059 103.132 40.6115 102.102C39.7506 100.308 38.9441 98.3993 38.1977 96.3862C44.9555 98.0738 52.3087 99 60 99C67.9432 99 75.5259 98.0121 82.4645 96.2179C81.7008 98.2929 80.8733 100.259 79.9885 102.102ZM60 108C53.9682 108 48.1442 107.288 42.6523 105.963C47.4681 114.228 53.5045 119.06 59.9176 119.244C60.9072 119.223 61.8885 119.142 62.8599 119.002C68.4999 117.905 73.7628 113.213 78.0478 105.791C72.3517 107.226 66.2888 108 60 108ZM37.3161 96.1608C38.4555 99.2991 39.7395 102.197 41.1475 104.811C38.2864 104.046 35.5242 103.111 32.8793 102.023C31.1511 99.3226 29.587 96.3593 28.2147 93.175C31.0938 94.3282 34.1367 95.3293 37.3161 96.1608ZM41.6445 105.712C38.8683 104.999 36.1802 104.129 33.5966 103.115C39.2206 111.453 46.4225 117.041 54.3542 118.72C49.5744 116.63 45.2307 112.071 41.6445 105.712ZM27.2286 92.7715C28.5366 95.9 30.0265 98.8261 31.6748 101.513C28.6295 100.188 25.7477 98.6562 23.0582 96.9418C21.3438 94.2523 19.812 91.3705 18.4869 88.3252C21.1739 89.9735 24.1 91.4634 27.2286 92.7715ZM32.3711 102.619C29.4429 101.402 26.6559 99.997 24.0351 98.4246C30.2243 107.516 38.5618 114.22 48.0306 117.327C42.0556 114.437 36.7045 109.329 32.3711 102.619ZM17.3807 87.6289C18.5981 90.5571 20.003 93.3441 21.5754 95.9649C12.4843 89.7757 5.7799 81.4383 2.67345 71.9694C5.56327 77.9444 10.6709 83.2955 17.3807 87.6289ZM17.9772 87.1207C16.8888 84.4758 15.9545 81.7136 15.1894 78.8525C17.8033 80.2605 20.7009 81.5445 23.8392 82.6839C24.6707 85.8633 25.6719 88.9062 26.825 91.7853C23.6407 90.413 20.6774 88.8489 17.9772 87.1207ZM16.8854 86.4034C15.8709 83.8198 15.0006 81.1317 14.2878 78.3555C7.92946 74.7694 3.37028 70.4256 1.28015 65.6459C2.95945 73.5775 8.54738 80.7794 16.8854 86.4034ZM17.8981 79.3885C16.8681 78.8941 15.8785 78.3831 14.931 77.8565C13.5148 72.2285 12.75 66.2314 12.75 60C12.75 53.5097 13.5796 47.2736 15.1109 41.444C16.0036 40.9525 16.9331 40.4747 17.8981 40.0115C19.7415 39.1267 21.7071 38.2992 23.7821 37.5355C21.9879 44.4741 21 52.0568 21 60C21 67.6913 21.9262 75.0445 23.6138 81.8024C21.6008 81.056 19.6916 80.2494 17.8981 79.3885ZM12 60C12 53.7112 12.774 47.6483 14.2095 41.9522C6.78686 46.2372 2.0953 51.5001 0.998172 57.14C0.858195 58.1115 0.776624 59.0928 0.755516 60.0825C0.940533 66.4955 5.77184 72.5319 14.0368 77.3477C12.7121 71.8558 12 66.0318 12 60ZM24.0158 36.6522C20.8864 37.7797 17.9941 39.0507 15.3813 40.4447C15.9489 38.4078 16.6027 36.4225 17.337 34.4953C17.5489 34.3555 17.7625 34.2166 17.9779 34.0788C20.519 32.4525 23.2924 30.9719 26.2643 29.6593C25.4217 31.9012 24.6695 34.2363 24.0158 36.6522ZM14.4723 40.941C14.9959 38.9856 15.5979 37.0752 16.2736 35.2155C9.74679 39.7526 4.97964 45.2756 2.55603 51.3572C4.99951 47.4757 9.10384 43.9401 14.4723 40.941ZM26.6416 28.6771C23.4694 30.0376 20.5111 31.5866 17.8061 33.2991C19.278 29.6507 21.0419 26.2214 23.0582 23.0582C25.7477 21.3438 28.6295 19.812 31.6748 18.4869C29.7746 21.5845 28.0849 25 26.6416 28.6771ZM16.7291 33.9985C18.0878 30.472 19.7142 27.1372 21.5754 24.0351C11.4193 30.9493 4.242 40.5445 1.73186 51.403C4.28645 44.7513 9.54919 38.781 16.7291 33.9985ZM32.3711 17.3807C29.4428 18.5981 26.6559 20.003 24.0351 21.5754C30.2243 12.4843 38.5617 5.7799 48.0306 2.67345C42.0556 5.56327 36.7044 10.6709 32.3711 17.3807ZM32.8793 17.9772C35.5242 16.8888 38.2863 15.9545 41.1475 15.1894C39.5436 18.167 38.1006 21.5126 36.849 25.1628C33.6164 26.0288 30.5274 27.0707 27.6113 28.2698C29.1225 24.5336 30.8924 21.0816 32.8793 17.9772ZM33.5966 16.8854C36.1801 15.8709 38.8683 15.0006 41.6445 14.2878C45.2306 7.92947 49.5744 3.37028 54.3541 1.28015C46.4225 2.95945 39.2206 8.54739 33.5966 16.8854ZM40.6115 17.8981C41.1059 16.8681 41.6169 15.8785 42.1435 14.931C47.7715 13.5148 53.7686 12.75 60 12.75C66.4903 12.75 72.7264 13.5796 78.556 15.1109C79.0475 16.0036 79.5253 16.9331 79.9885 17.8981C81.0595 20.1293 82.0464 22.5395 82.938 25.1061C75.8714 23.2334 68.1243 22.2 60 22.2C52.1279 22.2 44.6099 23.1703 37.722 24.9341C38.5978 22.4318 39.5645 20.0794 40.6115 17.8981ZM60 12C66.2888 12 72.3517 12.774 78.0478 14.2095C73.7628 6.78686 68.4999 2.0953 62.86 0.998172C61.8885 0.858195 60.9072 0.776624 59.9175 0.755516C53.5045 0.940533 47.4681 5.77185 42.6523 14.0368C48.1442 12.7121 53.9682 12 60 12ZM60 22.95C68.2508 22.95 76.101 24.0241 83.2294 25.9608C84.0392 28.3803 84.7654 30.9329 85.3989 33.6001C77.6857 31.8678 69.0783 30.9 60 30.9C51.1694 30.9 42.7843 31.8157 35.2345 33.46C35.8755 30.7788 36.6104 28.2141 37.4297 25.7847C44.3818 23.9591 52.0027 22.95 60 22.95ZM60 88.5C69.1365 88.5 77.796 87.5198 85.5471 85.7665C84.7656 89.1577 83.8351 92.3685 82.7739 95.3616C75.7671 97.2211 68.0754 98.25 60 98.25C52.1779 98.25 44.7159 97.2846 37.8875 95.5341C36.8156 92.5333 35.8753 89.3118 35.0855 85.9074C42.674 87.5722 51.1113 88.5 60 88.5ZM34.2742 85.7258C35.045 89.1044 35.9629 92.3092 37.0107 95.3041C33.785 94.4384 30.7057 93.3965 27.8023 92.1977C26.6035 89.2943 25.5616 86.215 24.6959 82.9893C27.6908 84.0371 30.8956 84.955 34.2742 85.7258ZM34.4208 33.6408C31.0564 34.403 27.8633 35.311 24.8769 36.3477C25.5598 33.8877 26.3457 31.5152 27.2258 29.2434C30.163 27.9996 33.2852 26.9176 36.5611 26.018C35.7619 28.4367 35.0456 30.9835 34.4208 33.6408Z" fill="url(#paint0_linear_253_164)"/>
<defs>
<linearGradient id="paint0_linear_253_164" x1="13.5" y1="17.25" x2="99" y2="118.5" gradientUnits="userSpaceOnUse">
<stop stop-color="white"/>
<stop offset="0.376612" stop-color="white"/>
<stop offset="1" stop-color="white" stop-opacity="0"/>
</linearGradient>
</defs>
</svg>
