<svg width="50" height="51" viewBox="0 0 50 51" fill="none" xmlns="http://www.w3.org/2000/svg">
<g id="logo">
<rect id="Rectangle 12" x="0.0487671" y="0.474976" width="49.9281" height="49.9281" rx="7.80127" fill="black"/>
<path id="Vector 3" d="M6.7085 22.9358C7.5908 21.2915 10.1736 18.0029 13.4461 18.0029C16.7187 18.0029 13.0451 25.0614 10.7992 28.5906C12.4034 24.7004 16.7668 17.1367 21.3869 18.0029C27.162 19.0858 19.1009 28.1093 19.1009 28.35C19.1009 28.5906 27.6432 14.2732 29.2073 18.6045C30.4586 22.0696 27.6432 26.5453 26.0791 28.35C25.6781 29.4729 26.3679 30.5397 32.3355 25.8234C38.3031 21.107 39.1533 16.4789 38.8325 14.7544L36.1058 20.2889M26.6807 39.4189L33.379 25.8234M33.379 25.8234C35.2369 26.5854 39.6988 26.8821 42.6826 21.9733C45.6664 17.0645 39.5413 18.805 36.1058 20.2889M33.379 25.8234L36.1058 20.2889" stroke="white" stroke-width="2.79597" stroke-linecap="round" stroke-linejoin="round"/>
</g>
</svg>
