<svg width="392" height="392" viewBox="0 0 392 392" fill="none" xmlns="http://www.w3.org/2000/svg">
<path d="M196 9.8C196 4.38761 191.609 -0.0255667 186.203 0.244808C141.122 2.49966 98.0826 20.2624 64.4695 50.6874C28.4289 83.3098 5.79727 128.161 0.969116 176.533C-3.85904 224.905 9.46082 273.345 38.3423 312.448C67.2238 351.55 109.606 378.525 157.259 388.133C204.912 397.742 254.436 389.299 296.213 364.444C337.991 339.589 369.041 300.095 383.335 253.632C397.629 207.169 394.147 157.052 373.564 113.012C354.368 71.9387 321.575 38.8854 280.89 19.337C276.011 16.9929 270.253 19.3597 268.156 24.3492C266.058 29.3386 268.418 35.0592 273.283 37.4303C309.491 55.0761 338.67 84.6423 355.808 121.311C374.332 160.947 377.466 206.052 364.602 247.869C351.737 289.686 323.792 325.23 286.192 347.599C248.592 369.969 204.021 377.568 161.133 368.92C118.245 360.272 80.1015 335.995 54.1081 300.803C28.1147 265.611 16.1269 222.015 20.4722 178.48C24.8176 134.945 45.186 94.5788 77.6226 65.2187C107.631 38.0565 145.987 22.1077 186.204 19.872C191.608 19.5716 196 15.2124 196 9.8Z" fill="#D9D9D9" fill-opacity="0.2"/>
</svg>
