<svg width="151" height="151" viewBox="0 0 151 151" fill="none" xmlns="http://www.w3.org/2000/svg">
<path fill-rule="evenodd" clip-rule="evenodd" d="M40.8785 115.694C60.3695 135.185 92.6522 134.532 113.592 113.592C134.532 92.6521 135.185 60.3694 115.694 40.8783C112.655 37.8395 93.4436 52.124 72.7839 72.7837C52.1242 93.4434 37.8396 112.655 40.8785 115.694ZM62.4271 126.713C79.2964 131.406 98.616 126.734 112.675 112.675C126.734 98.6158 131.406 79.2962 126.714 62.4269C129.432 78.1255 123.701 96.1473 109.924 109.924C96.1474 123.701 78.1257 129.432 62.4271 126.713ZM109.007 109.007C94.5966 123.417 75.5337 128.758 59.6105 124.715C74.455 126.755 92.2165 120.295 106.256 106.256C120.295 92.2163 126.755 74.4548 124.715 59.6104C128.758 75.5336 123.417 94.5965 109.007 109.007ZM56.8355 122.817C71.7289 126.204 90.5282 120.149 105.339 105.339C120.15 90.528 126.204 71.7288 122.817 56.8353C123.191 60.6811 122.91 64.7968 122.008 69.0352C119.644 80.1504 113.004 92.1712 102.588 102.588C92.1713 113.004 80.1506 119.644 69.0354 122.008C64.7969 122.91 60.6813 123.191 56.8355 122.817ZM68.8459 120.693C63.6231 121.804 58.6404 121.937 54.1639 121.057C57.9698 121.24 62.1415 120.667 66.4918 119.402C76.9272 116.366 88.5187 109.32 98.9196 98.9194C109.32 88.5186 116.366 76.927 119.402 66.4917C120.668 62.1414 121.241 57.9696 121.057 54.1638C121.937 58.6403 121.804 63.6229 120.693 68.8457C118.394 79.6528 111.914 91.4273 101.671 101.671C91.4274 111.914 79.653 118.394 68.8459 120.693ZM51.6766 119.446C55.9481 120.118 60.8904 119.657 66.2019 118.112C76.3612 115.157 87.7437 108.261 98.0025 98.0024C108.261 87.7435 115.157 76.361 118.112 66.2017C119.657 60.8902 120.118 55.9479 119.446 51.6765C119.39 55.3681 118.466 59.5395 116.79 63.952C113.086 73.703 105.638 84.8651 95.2514 95.2513C84.8653 105.637 73.7031 113.086 63.9521 116.79C59.5397 118.466 55.3682 119.39 51.6766 119.446ZM63.554 115.536C58.1642 117.584 53.3208 118.421 49.3529 117.996C52.8254 117.657 56.9332 116.332 61.4156 114.172C70.4784 109.804 81.2109 101.955 91.5832 91.5831C101.956 81.2107 109.804 70.4782 114.172 61.4155C116.332 56.933 117.657 52.8253 117.996 49.3528C118.421 53.3206 117.584 58.1641 115.536 63.5538C111.922 73.0699 104.608 84.0607 94.3344 94.3342C84.0608 104.608 73.07 111.922 63.554 115.536ZM47.2094 116.727C47.8413 116.751 48.5107 116.731 49.2166 116.666C52.4869 116.366 56.4622 115.107 60.9029 112.967C69.7796 108.689 80.3788 100.953 90.6662 90.666C100.954 80.3787 108.689 69.7795 112.967 60.9028C115.108 56.462 116.366 52.4868 116.666 49.2164C116.731 48.5105 116.751 47.8411 116.727 47.2093C116.677 47.4445 116.621 47.6831 116.56 47.9248C115.786 50.9646 114.057 54.6993 111.546 58.8808C106.52 67.2527 98.2745 77.5555 87.9151 87.9149C77.5556 98.2743 67.2528 106.519 58.8809 111.546C54.6995 114.056 50.9647 115.785 47.9249 116.559C47.6833 116.621 47.4447 116.677 47.2094 116.727ZM47.681 115.257C46.2939 115.61 45.1316 115.733 44.185 115.652C51.1551 113.165 66.9932 100.583 83.7884 83.7882C100.584 66.993 113.166 51.155 115.652 44.1848C115.733 45.1314 115.61 46.2938 115.257 47.6809C114.532 50.5289 112.882 54.1254 110.405 58.2499C105.458 66.4898 97.2983 76.6976 86.998 86.9979C76.6978 97.2981 66.49 105.458 58.25 110.405C54.1256 112.882 50.529 114.532 47.681 115.257ZM113.95 41.8568C114.477 41.7705 114.666 41.8428 114.708 41.8643C114.729 41.9062 114.802 42.0947 114.715 42.6225C114.607 43.2856 114.284 44.2231 113.692 45.4449C112.517 47.8735 110.435 51.1188 107.569 54.9732C101.85 62.664 93.1662 72.5763 82.8713 82.8712C72.5765 93.166 62.6642 101.85 54.9733 107.569C51.119 110.434 47.8736 112.517 45.445 113.692C44.2233 114.284 43.2857 114.607 42.6227 114.715C42.0948 114.801 41.9063 114.729 41.8645 114.708C41.8429 114.666 41.7706 114.477 41.857 113.949C41.9654 113.286 42.2886 112.349 42.8798 111.127C44.0552 108.698 46.1377 105.453 49.0036 101.599C54.7221 93.9079 63.4061 83.9956 73.7009 73.7008C83.9958 63.4059 93.9081 54.7219 101.599 49.0034C105.453 46.1376 108.699 44.055 111.127 42.8797C112.349 42.2884 113.287 41.9653 113.95 41.8568Z" fill="url(#paint0_linear_253_163)"/>
<path fill-rule="evenodd" clip-rule="evenodd" d="M35.3061 110.122C15.8151 90.6305 16.4677 58.3478 37.4077 37.4078C58.3477 16.4678 90.6304 15.8152 110.121 35.3062C113.16 38.345 98.8757 57.5564 78.216 78.2161C57.5563 98.8758 38.3449 113.16 35.3061 110.122ZM24.2863 88.5729C19.5935 71.7036 24.2655 52.384 38.3247 38.3248C52.3839 24.2656 71.7036 19.5936 88.5729 24.2864C72.8743 21.5676 54.8525 27.2993 41.0758 41.0759C27.2992 54.8526 21.5674 72.8743 24.2863 88.5729ZM41.9929 41.993C27.5825 56.4034 22.2422 75.4663 26.285 91.3895C24.2447 76.545 30.7046 58.7835 44.744 44.7441C58.7834 30.7047 76.545 24.2448 91.3894 26.2851C75.4662 22.2423 56.4033 27.5826 41.9929 41.993ZM28.1826 94.1645C24.7954 79.2711 30.8503 60.4718 45.661 45.6611C60.4717 30.8504 79.271 24.7955 94.1645 28.1827C90.3187 27.8092 86.203 28.09 81.9645 28.9916C70.8493 31.356 58.8286 37.9959 48.4122 48.4123C37.9958 58.8287 31.3559 70.8494 28.9915 81.9646C28.0899 86.2031 27.8091 90.3187 28.1826 94.1645ZM30.3067 82.1541C29.1957 87.3769 29.0625 92.3596 29.9431 96.8361C29.7594 93.0302 30.3324 88.8585 31.5979 84.5082C34.6335 74.0728 41.6795 62.4813 52.0803 52.0804C62.4812 41.6796 74.0727 34.6336 84.5081 31.598C88.8584 30.3325 93.0301 29.7595 96.836 29.9432C92.3595 29.0627 87.3768 29.1958 82.154 30.3068C71.3469 32.6056 59.5725 39.086 49.3292 49.3293C39.0859 59.5726 32.6055 71.347 30.3067 82.1541ZM31.5542 99.3234C30.8816 95.0519 31.3427 90.1096 32.8878 84.7981C35.8431 74.6388 42.7385 63.2563 52.9974 52.9975C63.2562 42.7386 74.6387 35.8432 84.798 32.8879C90.1095 31.3428 95.0518 30.8817 99.3233 31.5543C95.6317 31.6095 91.4602 32.5338 87.0478 34.2099C77.2968 37.9138 66.1346 45.3625 55.7485 55.7486C45.3624 66.1347 37.9137 77.2969 34.2098 87.0479C32.5337 91.4603 31.6094 95.6318 31.5542 99.3234ZM35.4635 87.446C33.4162 92.8358 32.5785 97.6792 33.0041 101.647C33.3424 98.1746 34.6678 94.0668 36.8282 89.5844C41.1961 80.5216 49.0443 69.7891 59.4167 59.4168C69.789 49.0444 80.5215 41.1962 89.5843 36.8283C94.0667 34.6679 98.1744 33.3426 101.647 33.0042C97.6791 32.5786 92.8357 33.4163 87.4459 35.4636C77.9299 39.0782 66.9391 46.3921 56.6655 56.6656C46.392 66.9392 39.0781 77.93 35.4635 87.446ZM34.2731 103.791C34.2487 103.159 34.2687 102.489 34.3336 101.783C34.634 98.5131 35.8924 94.5378 38.0326 90.0971C42.3109 81.2204 50.0464 70.6212 60.3337 60.3338C70.621 50.0465 81.2203 42.311 90.097 38.0327C94.5377 35.8925 98.513 34.6341 101.783 34.3337C102.489 34.2688 103.159 34.2488 103.79 34.2733C103.555 34.3231 103.317 34.3789 103.075 34.4404C100.035 35.2145 96.3004 36.9434 92.119 39.454C83.7471 44.4805 73.4443 52.7255 63.0848 63.0849C52.7254 73.4444 44.4804 83.7472 39.4539 92.1191C36.9433 96.3005 35.2144 100.035 34.4403 103.075C34.3788 103.317 34.323 103.555 34.2731 103.791ZM35.7428 103.319C35.3896 104.706 35.2665 105.868 35.3476 106.815C37.8343 99.8449 50.4163 84.0068 67.2115 67.2116C84.0067 50.4164 99.8448 37.8344 106.815 35.3477C105.868 35.2666 104.706 35.3897 103.319 35.7429C100.471 36.4681 96.8743 38.1183 92.7499 40.5946C84.5099 45.5419 74.3021 53.7017 64.0019 64.002C53.7016 74.3022 45.5418 84.51 40.5945 92.75C38.1182 96.8744 36.468 100.471 35.7428 103.319ZM109.143 37.0504C109.229 36.5226 109.157 36.3341 109.135 36.2922C109.094 36.2707 108.905 36.1984 108.377 36.2847C107.714 36.3932 106.777 36.7163 105.555 37.3076C103.126 38.4829 99.8809 40.5655 96.0266 43.4313C88.3357 49.1498 78.4234 57.8338 68.1286 68.1287C57.8337 78.4235 49.1497 88.3358 43.4312 96.0267C40.5654 99.881 38.4828 103.126 37.3075 105.555C36.7162 106.777 36.3931 107.714 36.2846 108.377C36.1983 108.905 36.2706 109.094 36.2921 109.136C36.334 109.157 36.5225 109.229 37.0503 109.143C37.7134 109.035 38.6509 108.711 39.8727 108.12C42.3013 106.945 45.5466 104.862 49.401 101.996C57.0918 96.2779 67.0041 87.5939 77.299 77.2991C87.5938 67.0042 96.2778 57.0919 101.996 49.4011C104.862 45.5467 106.945 42.3014 108.12 39.8728C108.711 38.651 109.034 37.7135 109.143 37.0504Z" fill="url(#paint1_linear_253_163)"/>
<defs>
<linearGradient id="paint0_linear_253_163" x1="117.979" y1="113.389" x2="70.7296" y2="71.0029" gradientUnits="userSpaceOnUse">
<stop stop-color="white"/>
<stop offset="1" stop-color="white" stop-opacity="0"/>
</linearGradient>
<linearGradient id="paint1_linear_253_163" x1="30.4283" y1="31.3967" x2="80.0875" y2="80.2201" gradientUnits="userSpaceOnUse">
<stop stop-color="white"/>
<stop offset="1" stop-color="white" stop-opacity="0"/>
</linearGradient>
</defs>
</svg>
