<svg width="151" height="100" viewBox="0 0 151 100" fill="none" xmlns="http://www.w3.org/2000/svg">
<g opacity="0.5">
<rect y="50" width="50" height="50" fill="#B2B27F"/>
<path d="M0 100V50L50 100H0Z" fill="#CECE98"/>
<rect x="100" y="50" width="50" height="50" fill="#D9D99F"/>
<rect width="50" height="50" fill="#D9D99F"/>
<rect x="100" width="50" height="50" fill="#D9D99F"/>
<rect x="103" width="5" height="50" fill="#B2B27F"/>
<rect x="113" width="5" height="44" fill="#B2B27F"/>
<rect x="123" width="5" height="34" fill="#B2B27F"/>
<rect x="133" width="5" height="43" fill="#B2B27F"/>
<rect x="143" width="5" height="54" fill="#B2B27F"/>
<circle cx="75" cy="25" r="25" fill="#D9D99F"/>
<path d="M100 25C100 29.9445 98.5338 34.778 95.7867 38.8893C93.0397 43.0005 89.1352 46.2048 84.5671 48.097C79.9989 49.9892 74.9723 50.4843 70.1227 49.5196C65.2732 48.555 60.8186 46.174 57.3223 42.6777C53.826 39.1814 51.445 34.7268 50.4804 29.8773C49.5157 25.0277 50.0108 20.0011 51.903 15.4329C53.7952 10.8648 56.9995 6.96029 61.1107 4.21326C65.222 1.46622 70.0555 -5.8963e-08 75 0V25H100Z" fill="#B2B27F"/>
<path d="M75 100C70.0555 100 65.222 98.5338 61.1107 95.7867C56.9995 93.0397 53.7952 89.1352 51.903 84.5671C50.0108 79.9989 49.5157 74.9723 50.4804 70.1228C51.445 65.2732 53.826 60.8187 57.3223 57.3223C60.8186 53.826 65.2732 51.445 70.1227 50.4804C74.9722 49.5157 79.9989 50.0108 84.5671 51.903C89.1352 53.7952 93.0397 56.9995 95.7867 61.1107C98.5338 65.2219 100 70.0554 100 75L75 75L75 100Z" fill="#B2B27F"/>
<rect x="100" width="50" height="6" fill="#B2B27F"/>
<path d="M150 50C150 56.5661 148.707 63.0679 146.194 69.1342C143.681 75.2005 139.998 80.7124 135.355 85.3553C130.712 89.9983 125.2 93.6812 119.134 96.194C113.068 98.7067 106.566 100 100 100L100 50H150Z" fill="#B2B27F"/>
<path d="M100.341 51.0601C100.333 47.8418 100.97 44.6535 102.215 41.6772C103.46 38.7008 105.289 35.9947 107.597 33.7134C109.906 31.432 112.649 29.6201 115.669 28.3811C118.689 27.1421 121.928 26.5003 125.201 26.4922L125.261 50.9988L100.341 51.0601Z" fill="#D9D99F"/>
<path d="M150.122 50.8244C150.122 47.6279 149.477 44.4627 148.225 41.5096C146.973 38.5564 145.137 35.8731 142.823 33.6129C140.509 31.3526 137.762 29.5597 134.738 28.3365C131.715 27.1133 128.474 26.4837 125.202 26.4837L125.202 50.8244H150.122Z" fill="#D9D99F"/>
<rect y="6" width="19" height="44" fill="#CECE98"/>
<rect x="19" y="40" width="31" height="10" fill="#D9D99F"/>
<rect x="19" y="24" width="18" height="16" fill="#D9D99F"/>
<rect width="50" height="6" fill="#E7E7B6"/>
<rect x="37" width="13" height="40" fill="#B2B27F"/>
<path d="M100 75H75V100L100 75Z" fill="#CECE98"/>
</g>
</svg>
