<svg width="20" height="20" viewBox="0 0 15 14" fill="none" xmlns="http://www.w3.org/2000/svg">
<path d="M11.0039 3.42941H5.44263C5.32873 3.42941 5.2195 3.38417 5.13896 3.30363C5.05843 3.22309 5.01318 3.11386 5.01318 2.99997C5.01318 2.88607 5.05843 2.77684 5.13896 2.69631C5.2195 2.61577 5.32873 2.57053 5.44263 2.57053H11.4333C11.5472 2.57053 11.6565 2.61577 11.737 2.69631C11.8175 2.77684 11.8628 2.88607 11.8628 2.99997V9.01216C11.8628 9.12605 11.8175 9.23528 11.737 9.31582C11.6565 9.39635 11.5472 9.4416 11.4333 9.4416C11.3194 9.4416 11.2102 9.39635 11.1297 9.31582C11.0491 9.23528 11.0039 9.12605 11.0039 9.01216V3.42941Z" fill="black"/>
<path d="M11.1291 2.69592C11.2097 2.61528 11.3191 2.56998 11.4331 2.56998C11.5472 2.56998 11.6565 2.61528 11.7372 2.69592C11.8178 2.77655 11.8631 2.88592 11.8631 2.99996C11.8631 3.114 11.8178 3.22337 11.7372 3.30401L4.43667 10.6045C4.39674 10.6444 4.34934 10.6761 4.29717 10.6977C4.245 10.7193 4.18909 10.7305 4.13262 10.7305C4.07615 10.7305 4.02024 10.7193 3.96807 10.6977C3.91591 10.6761 3.8685 10.6444 3.82858 10.6045C3.78865 10.5646 3.75698 10.5172 3.73537 10.465C3.71376 10.4129 3.70264 10.3569 3.70264 10.3005C3.70264 10.244 3.71376 10.1881 3.73537 10.1359C3.75698 10.0838 3.78865 10.0364 3.82858 9.99643L11.1291 2.69592Z" fill="black"/>
</svg>
