<svg width="33" height="33" viewBox="0 0 33 33" fill="none" xmlns="http://www.w3.org/2000/svg">
<g id="ep:top-right">
<path id="Vector" d="M24.45 8.55H11.5809C11.3173 8.55 11.0646 8.4453 10.8782 8.25894C10.6919 8.07257 10.5872 7.81981 10.5872 7.55625C10.5872 7.29269 10.6919 7.03993 10.8782 6.85356C11.0646 6.6672 11.3173 6.5625 11.5809 6.5625H25.4437C25.7073 6.5625 25.96 6.6672 26.1464 6.85356C26.3328 7.03993 26.4375 7.29269 26.4375 7.55625V21.4688C26.4375 21.7323 26.3328 21.9851 26.1464 22.1714C25.96 22.3578 25.7073 22.4625 25.4437 22.4625C25.1802 22.4625 24.9274 22.3578 24.741 22.1714C24.5547 21.9851 24.45 21.7323 24.45 21.4688V8.55Z" fill="black"/>
<path id="Vector_2" d="M24.7401 6.85268C24.9267 6.66608 25.1798 6.56125 25.4437 6.56125C25.7076 6.56125 25.9607 6.66608 26.1473 6.85268C26.3339 7.03928 26.4387 7.29236 26.4387 7.55625C26.4387 7.82015 26.3339 8.07323 26.1473 8.25983L9.25351 25.1536C9.16112 25.246 9.05143 25.3193 8.93071 25.3693C8.80999 25.4193 8.6806 25.445 8.54994 25.445C8.41927 25.445 8.28988 25.4193 8.16916 25.3693C8.04845 25.3193 7.93876 25.246 7.84636 25.1536C7.75397 25.0612 7.68068 24.9515 7.63067 24.8308C7.58067 24.7101 7.55493 24.5807 7.55493 24.45C7.55493 24.3193 7.58067 24.19 7.63067 24.0692C7.68068 23.9485 7.75397 23.8388 7.84636 23.7464L24.7401 6.85268Z" fill="black"/>
</g>
</svg>
