<svg width="90" height="90" viewBox="0 0 90 90" fill="none" xmlns="http://www.w3.org/2000/svg">
<g id="mdi:meditation">
<path id="Vector" d="M45 15C49.1625 15 52.5 18.3375 52.5 22.5C52.5 26.6625 49.1625 30 45 30C40.8375 30 37.5 26.6625 37.5 22.5C37.5 18.3375 40.875 15 45 15ZM78.75 60V52.5C70.35 52.5 63.15 48.9 57.75 42.45L52.725 36.45C52.0273 35.6043 51.151 34.9235 50.159 34.4567C49.167 33.9899 48.0839 33.7485 46.9875 33.75H43.125C40.8375 33.75 38.7375 34.725 37.3125 36.45L32.2875 42.45C26.85 48.9 19.65 52.5 11.25 52.5V60C21.6375 60 30.7125 55.6125 37.5 47.8125V56.25L22.95 62.0625C20.4375 63.075 18.75 65.625 18.75 68.2875C18.75 72 21.75 75 25.4625 75H33.75V73.125C33.75 70.6386 34.7377 68.254 36.4959 66.4959C38.254 64.7377 40.6386 63.75 43.125 63.75H54.375C55.425 63.75 56.25 64.575 56.25 65.625C56.25 66.675 55.425 67.5 54.375 67.5H43.125C40.0125 67.5 37.5 70.0125 37.5 73.125V75H64.5375C68.25 75 71.25 72 71.25 68.2875C71.25 65.625 69.5625 63.075 67.05 62.0625L52.5 56.25V47.8125C59.2875 55.6125 68.3625 60 78.75 60Z" fill="#9FBB9D" fill-opacity="0.5"/>
</g>
</svg>
