<svg width="45" height="45" viewBox="0 0 45 45" fill="none" xmlns="http://www.w3.org/2000/svg">
<g clip-path="url(#clip0_7_128)">
<path d="M33.7429 22.5L24.6431 13.4002C24.4568 13.2138 24.3521 12.9611 24.3521 12.6975C24.3521 12.434 24.4568 12.1812 24.6431 11.9948C24.8295 11.8085 25.0823 11.7038 25.3458 11.7038C25.6094 11.7038 25.8621 11.8085 26.0485 11.9948L35.851 21.7973C36.0374 21.9837 36.1421 22.2364 36.1421 22.5C36.1421 22.7636 36.0374 23.0163 35.851 23.2027L26.0134 33.0403C25.827 33.2267 25.5743 33.3314 25.3107 33.3314C25.0471 33.3314 24.7944 33.2267 24.608 33.0403C24.4216 32.8539 24.3169 32.6012 24.3169 32.3376C24.3169 32.0741 24.4216 31.8213 24.608 31.6349L33.7429 22.5Z" fill="black"/>
<path d="M35.1482 21.5049C35.4121 21.5049 35.6652 21.6098 35.8518 21.7964C36.0384 21.983 36.1432 22.236 36.1432 22.4999C36.1432 22.7638 36.0384 23.0169 35.8518 23.2035C35.6652 23.3901 35.4121 23.4949 35.1482 23.4949H11.2568C11.1262 23.4949 10.9968 23.4692 10.8761 23.4192C10.7553 23.3692 10.6457 23.2959 10.5533 23.2035C10.4609 23.1111 10.3876 23.0014 10.3376 22.8807C10.2876 22.76 10.2618 22.6306 10.2618 22.4999C10.2618 22.3693 10.2876 22.2399 10.3376 22.1192C10.3876 21.9984 10.4609 21.8888 10.5533 21.7964C10.6457 21.704 10.7553 21.6307 10.8761 21.5807C10.9968 21.5307 11.1262 21.5049 11.2568 21.5049H35.1482Z" fill="black"/>
</g>
<defs>
<clipPath id="clip0_7_128">
<rect width="31.8" height="31.8" fill="white" transform="translate(22.4999 0.0139847) rotate(45)"/>
</clipPath>
</defs>
</svg>
