<svg width="33" height="33" viewBox="0 0 33 33" fill="none" xmlns="http://www.w3.org/2000/svg">
<g id="ph:plus">
<path id="Vector" d="M28.875 16.5C28.875 16.7735 28.7664 17.0358 28.573 17.2292C28.3796 17.4226 28.1173 17.5312 27.8438 17.5312H17.5312V27.8438C17.5312 28.1173 17.4226 28.3796 17.2292 28.573C17.0358 28.7664 16.7735 28.875 16.5 28.875C16.2265 28.875 15.9642 28.7664 15.7708 28.573C15.5774 28.3796 15.4688 28.1173 15.4688 27.8438V17.5312H5.15625C4.88275 17.5312 4.62044 17.4226 4.42705 17.2292C4.23365 17.0358 4.125 16.7735 4.125 16.5C4.125 16.2265 4.23365 15.9642 4.42705 15.7708C4.62044 15.5774 4.88275 15.4688 5.15625 15.4688H15.4688V5.15625C15.4688 4.88275 15.5774 4.62044 15.7708 4.42705C15.9642 4.23365 16.2265 4.125 16.5 4.125C16.7735 4.125 17.0358 4.23365 17.2292 4.42705C17.4226 4.62044 17.5312 4.88275 17.5312 5.15625V15.4688H27.8438C28.1173 15.4688 28.3796 15.5774 28.573 15.7708C28.7664 15.9642 28.875 16.2265 28.875 16.5Z" fill="black"/>
</g>
</svg>
