<svg width="68" height="68" viewBox="0 0 68 68" fill="none" xmlns="http://www.w3.org/2000/svg">
<path d="M48 23.5931C48.0031 20.3812 46.9366 17.2581 44.9663 14.709C42.996 12.16 40.2321 10.3276 37.104 9.49651C33.9759 8.66542 30.6586 8.88216 27.6674 10.113C24.6762 11.3439 22.1786 13.5201 20.5624 16.3035C20.0055 17.2607 19.8548 18.3983 20.1434 19.4657C20.4321 20.5332 21.1365 21.4433 22.1017 21.9956C23.0668 22.548 24.2137 22.6975 25.29 22.4112C26.3663 22.1249 27.2838 21.4263 27.8407 20.469C28.395 19.5194 29.1911 18.7309 30.1493 18.1826C31.1076 17.6343 32.1943 17.3454 33.3005 17.3449C34.9713 17.3449 36.5737 18.0031 37.7551 19.1749C38.9366 20.3467 39.6003 21.936 39.6003 23.5931C39.6003 25.2503 38.9366 26.8395 37.7551 28.0113C36.5737 29.1831 34.9713 29.8414 33.3005 29.8414H33.2879C33.0171 29.8684 32.7497 29.9228 32.49 30.0038C32.208 30.0323 31.9294 30.0881 31.6584 30.1705C31.4279 30.2954 31.2099 30.4418 31.0074 30.6078C30.7662 30.7383 30.5383 30.8918 30.3271 31.0661C30.1382 31.29 29.9735 31.5329 29.8357 31.7909C29.6822 31.9784 29.5459 32.1792 29.4283 32.3907C29.3368 32.6779 29.2763 32.9739 29.2477 33.2738C29.1754 33.513 29.1262 33.7585 29.1007 34.0069V38.1724L29.1091 38.2182V40.2635C29.1113 41.3668 29.5548 42.4242 30.3422 43.2036C31.1296 43.983 32.1965 44.4207 33.3089 44.4207H33.3215C33.8731 44.4196 34.419 44.3108 34.9281 44.1004C35.4372 43.8901 35.8996 43.5823 36.2888 43.1948C36.678 42.8072 36.9865 42.3474 37.1965 41.8416C37.4066 41.3358 37.5141 40.7939 37.513 40.2469L37.5046 37.4893C40.5271 36.5987 43.18 34.7663 45.0703 32.2634C46.9607 29.7606 47.988 26.7203 48 23.5931ZM30.3481 51.877C29.7583 52.4571 29.3552 53.1977 29.1898 54.005C29.0244 54.8123 29.1041 55.6502 29.4188 56.4126C29.7334 57.175 30.269 57.8278 30.9577 58.2883C31.6464 58.7489 32.4573 58.9965 33.2879 59C34.4011 58.9905 35.4683 58.5582 36.2698 57.792C37.0496 57.0018 37.4863 55.9402 37.4863 54.8345C37.4863 53.7288 37.0496 52.6671 36.2698 51.877C35.4659 51.1338 34.4079 50.7206 33.3089 50.7206C32.21 50.7206 31.1519 51.1338 30.3481 51.877Z" fill="#C09F8E" fill-opacity="0.5"/>
<path d="M27 47.5884C27.0015 45.9182 26.4683 44.2942 25.4832 42.9687C24.498 41.6432 23.1161 40.6903 21.552 40.2582C19.9879 39.826 18.3293 39.9387 16.8337 40.5788C15.3381 41.2188 14.0893 42.3504 13.2812 43.7978C13.0027 44.2956 12.9274 44.8871 13.0717 45.4422C13.216 45.9973 13.5682 46.4705 14.0508 46.7577C14.5334 47.045 15.1069 47.1227 15.645 46.9738C16.1831 46.8249 16.6419 46.4617 16.9204 45.9639C17.1975 45.4701 17.5956 45.0601 18.0747 44.775C18.5538 44.4898 19.0971 44.3396 19.6503 44.3393C20.4857 44.3393 21.2869 44.6816 21.8776 45.291C22.4683 45.9003 22.8002 46.7267 22.8002 47.5884C22.8002 48.4501 22.4683 49.2766 21.8776 49.8859C21.2869 50.4952 20.4857 50.8375 19.6503 50.8375H19.644C19.5085 50.8516 19.3748 50.8799 19.245 50.922C19.104 50.9368 18.9647 50.9658 18.8292 51.0086C18.7139 51.0736 18.6049 51.1498 18.5037 51.2361C18.3831 51.3039 18.2692 51.3837 18.1635 51.4743C18.0691 51.5908 17.9868 51.7171 17.9178 51.8512C17.8411 51.9488 17.7729 52.0532 17.7141 52.1632C17.6684 52.3125 17.6381 52.4664 17.6238 52.6224C17.5877 52.7468 17.5631 52.8744 17.5503 53.0036V55.1697L17.5545 55.1935V56.257C17.5557 56.8308 17.7774 57.3806 18.1711 57.7859C18.5648 58.1911 19.0983 58.4188 19.6545 58.4188H19.6608C19.9365 58.4182 20.2095 58.3616 20.4641 58.2522C20.7186 58.1428 20.9498 57.9828 21.1444 57.7813C21.339 57.5797 21.4932 57.3406 21.5983 57.0776C21.7033 56.8146 21.757 56.5328 21.7565 56.2484L21.7523 54.8144C23.2635 54.3513 24.59 53.3985 25.5352 52.097C26.4803 50.7955 26.994 49.2146 27 47.5884ZM18.174 62.296C17.8792 62.5977 17.6776 62.9828 17.5949 63.4026C17.5122 63.8224 17.552 64.2581 17.7094 64.6546C17.8667 65.051 18.1345 65.3904 18.4788 65.6299C18.8232 65.8694 19.2287 65.9982 19.644 66C20.2006 65.9951 20.7341 65.7703 21.1349 65.3718C21.5248 64.961 21.7432 64.4089 21.7432 63.8339C21.7432 63.259 21.5248 62.7069 21.1349 62.296C20.733 61.9096 20.2039 61.6947 19.6545 61.6947C19.105 61.6947 18.576 61.9096 18.174 62.296Z" fill="#C09F8E" fill-opacity="0.5"/>
</svg>
