<svg width="200" height="234" viewBox="0 0 200 234" fill="none" xmlns="http://www.w3.org/2000/svg">
<rect x="0.205811" width="34.4118" height="34.4118" rx="4.81765" fill="#D9D9D9"/>
<rect x="41.5" width="34.4118" height="34.4118" rx="4.81765" fill="#D9D9D9"/>
<rect x="82.7942" width="34.4118" height="34.4118" rx="4.81765" fill="#FFD600"/>
<rect x="124.088" width="34.4118" height="34.4118" rx="4.81765" fill="#D9D9D9"/>
<rect x="165.382" width="34.4118" height="34.4118" rx="4.81765" fill="#D9D9D9"/>
<rect x="0.205811" y="39.9176" width="34.4118" height="34.4118" rx="4.81765" fill="#D9D9D9"/>
<rect x="41.5" y="39.9176" width="34.4118" height="34.4118" rx="4.81765" fill="#D9D9D9"/>
<rect x="82.7942" y="39.9176" width="34.4118" height="34.4118" rx="4.81765" fill="#FFD600"/>
<rect x="124.088" y="39.9176" width="34.4118" height="34.4118" rx="4.81765" fill="#D9D9D9"/>
<rect x="165.382" y="39.9176" width="34.4118" height="34.4118" rx="4.81765" fill="#2CDD00"/>
<rect x="0.205811" y="79.8353" width="34.4118" height="34.4118" rx="4.81765" fill="#D9D9D9"/>
<rect x="41.5" y="79.8353" width="34.4118" height="34.4118" rx="4.81765" fill="#2CDD00"/>
<rect x="82.7942" y="79.8353" width="34.4118" height="34.4118" rx="4.81765" fill="#D9D9D9"/>
<rect x="124.088" y="79.8353" width="34.4118" height="34.4118" rx="4.81765" fill="#D9D9D9"/>
<rect x="165.382" y="79.8353" width="34.4118" height="34.4118" rx="4.81765" fill="#2CDD00"/>
<rect x="0.205811" y="119.753" width="34.4118" height="34.4118" rx="4.81765" fill="#2CDD00"/>
<rect x="41.5" y="119.753" width="34.4118" height="34.4118" rx="4.81765" fill="#2CDD00"/>
<rect x="82.7942" y="119.753" width="34.4118" height="34.4118" rx="4.81765" fill="#D9D9D9"/>
<rect x="124.088" y="119.753" width="34.4118" height="34.4118" rx="4.81765" fill="#D9D9D9"/>
<rect x="165.382" y="119.753" width="34.4118" height="34.4118" rx="4.81765" fill="#2CDD00"/>
<rect x="0.205811" y="159.671" width="34.4118" height="34.4118" rx="4.81765" fill="#2CDD00"/>
<rect x="41.5" y="159.671" width="34.4118" height="34.4118" rx="4.81765" fill="#2CDD00"/>
<rect x="82.7942" y="159.671" width="34.4118" height="34.4118" rx="4.81765" fill="#D9D9D9"/>
<rect x="124.088" y="159.671" width="34.4118" height="34.4118" rx="4.81765" fill="#FFD600"/>
<rect x="165.382" y="159.671" width="34.4118" height="34.4118" rx="4.81765" fill="#2CDD00"/>
<rect x="0.205811" y="199.588" width="34.4118" height="34.4118" rx="4.81765" fill="#2CDD00"/>
<rect x="41.5" y="199.588" width="34.4118" height="34.4118" rx="4.81765" fill="#2CDD00"/>
<rect x="82.7942" y="199.588" width="34.4118" height="34.4118" rx="4.81765" fill="#2CDD00"/>
<rect x="124.088" y="199.588" width="34.4118" height="34.4118" rx="4.81765" fill="#2CDD00"/>
<rect x="165.382" y="199.588" width="34.4118" height="34.4118" rx="4.81765" fill="#2CDD00"/>
</svg>
