<svg width="22" height="18" viewBox="0 0 22 18" fill="none" xmlns="http://www.w3.org/2000/svg">
<path id="Vector" d="M12.945 17.1906L21.1396 8.95344L12.945 0.716232C12.871 0.619045 12.777 0.538894 12.6693 0.481205C12.5616 0.423516 12.4428 0.389636 12.3209 0.381857C12.199 0.374079 12.0768 0.392585 11.9627 0.436122C11.8485 0.479659 11.7451 0.54721 11.6593 0.634203C11.5736 0.721196 11.5075 0.825599 11.4656 0.940345C11.4237 1.05509 11.4069 1.1775 11.4165 1.29929C11.426 1.42107 11.4615 1.53939 11.5208 1.64623C11.58 1.75307 11.6615 1.84594 11.7597 1.91856L17.8907 8.10073H1.57832C1.35216 8.10073 1.13527 8.19056 0.975359 8.35048C0.815443 8.51039 0.725603 8.72729 0.725603 8.95344C0.725603 9.17959 0.815443 9.39648 0.975359 9.5564C1.13527 9.71631 1.35216 9.80615 1.57832 9.80615L17.8907 9.80615L11.7597 15.9883C11.6003 16.1489 11.5112 16.3662 11.512 16.5925C11.5128 16.8188 11.6034 17.0355 11.764 17.1949C11.9245 17.3543 12.1419 17.4435 12.3682 17.4427C12.5944 17.4419 12.8111 17.3512 12.9706 17.1906H12.945Z" fill="black"/>
</svg>
